#N canvas 71 -1197 656 435 12;
#X obj 105 215 readsf~;
#X obj 78 264 dac~;
#X msg 29 227 1;
#X msg 29 192 start;
#X msg 131 166 open Sink_Phrase_009.wav mySamples;
#X obj 41 61 trigger;
#X obj 116 26 osc~;
#X msg 176 15 bang;
#X obj 171 46 bng 15 250 50 0 empty empty empty 17 7 0 10 #fcfcfc #000000
#000000;
#X obj 300 23 loadbang;
#X floatatom 447 82 5 0 0 0 - - - 0;
#X msg 538 65 start;
#X obj 467 145 print, f 12;
#X obj 305 81 netreceive -b 2342;
#X connect 0 0 1 0;
#X connect 0 0 1 1;
#X connect 2 0 0 0;
#X connect 3 0 0 0;
#X connect 4 0 0 0;
#X connect 4 0 3 0;
#X connect 8 0 4 0;
#X connect 9 0 4 0;
#X connect 9 0 11 0;
#X connect 11 0 12 0;
#X connect 13 0 12 0;
#X connect 13 1 10 0;
