#N canvas 71 25 823 468 12;
#X obj 105 215 readsf~;
#X obj 78 264 dac~;
#X msg 29 157 1;
#X msg 29 122 start;
#X obj 32 88 trigger;
#X obj 31 50 osc~;
#X msg 218 211 bang;
#X obj 300 23 loadbang;
#X floatatom 447 82 5 0 0 0 - - - 0;
#X msg 538 65 start;
#X obj 467 145 print, f 12;
#X obj 305 81 netreceive -b 2342;
#X msg 131 166 open Sink_Phrase_009.wav \, 1;
#X connect 0 0 1 0;
#X connect 0 0 1 1;
#X connect 0 1 6 0;
#X connect 7 0 12 0;
#X connect 7 0 9 0;
#X connect 9 0 10 0;
#X connect 11 0 10 0;
#X connect 11 1 8 0;
#X connect 12 0 0 0;
