#N canvas 63 88 675 465 12;
#X obj 107 172 readsf~;
#X obj 95 207 dac~;
#X msg 117 146 1;
#X msg 152 146 start;
#X msg 83 122 open Sink_Phrase_009.wav mySamples;
#X obj 168 92 bng 15 250 50 0 empty empty empty 17 7 0 10 #fcfcfc #000000
#000000;
#X obj 118 54 trigger;
#X obj 206 22 osc~;
#X connect 0 0 1 0;
#X connect 0 0 1 1;
#X connect 0 1 5 0;
#X connect 2 0 0 0;
#X connect 3 0 0 0;
#X connect 4 0 0 0;
#X connect 4 0 3 0;
#X connect 5 0 4 0;
#X connect 6 0 5 0;
